<svg xmlns="http://www.w3.org/2000/svg" width="1200" height="630" viewBox="0 0 1200 630" role="img" aria-label="LIFE-STAGE: Your Closet Is Stuck in 2019">
  <defs>
    <linearGradient id="bg" x1="0%" y1="0%" x2="100%" y2="100%">
      <stop offset="0%" stop-color="#2a1a20"/>
      <stop offset="100%" stop-color="#180e14"/>
    </linearGradient>
    <linearGradient id="vg" x1="0%" y1="100%" x2="0%" y2="0%">
      <stop offset="0%" stop-color="#000" stop-opacity="0.35"/>
      <stop offset="100%" stop-color="#000" stop-opacity="0"/>
    </linearGradient>
  </defs>
  <rect width="1200" height="630" fill="url(#bg)"/>
  <path d="M820 180 Q 920 150 1020 180 T 1200 180" stroke="#d8a8c0" stroke-width="3" fill="none" opacity="0.15"/><path d="M820 240 Q 920 210 1020 240 T 1200 240" stroke="#d8a8c0" stroke-width="3" fill="none" opacity="0.20"/><path d="M820 300 Q 920 270 1020 300 T 1200 300" stroke="#d8a8c0" stroke-width="3" fill="none" opacity="0.25"/><path d="M820 360 Q 920 330 1020 360 T 1200 360" stroke="#d8a8c0" stroke-width="3" fill="none" opacity="0.30"/><path d="M820 420 Q 920 390 1020 420 T 1200 420" stroke="#d8a8c0" stroke-width="3" fill="none" opacity="0.35"/>
  <rect width="1200" height="630" fill="url(#vg)"/>
  <g transform="translate(80,80)">
    <circle cx="0" cy="0" r="6" fill="#c9a84c"/>
    <text x="18" y="6" fill="#c9a84c" font-family="Georgia,serif" font-size="20" font-weight="600" letter-spacing="3">DRIPMATIQ</text>
  </g>
  <text x="80" y="290" fill="#d8a8c0" font-family="system-ui,sans-serif" font-size="16" font-weight="700" letter-spacing="4">LIFE-STAGE</text>
  <rect x="80" y="305" width="48" height="3" fill="#d8a8c0"/>
  <text x="80" y="370" fill="#ffffff" font-family="Georgia,serif" font-size="60" font-weight="700">Your Closet</text>
  <text x="80" y="440" fill="#ffffff" font-family="Georgia,serif" font-size="60" font-weight="700">Is Stuck in 2019</text>
  <text x="80" y="540" fill="#888" font-family="system-ui,sans-serif" font-size="14" letter-spacing="2">DRIPMATIQ.APP / BLOG</text>
</svg>
