<svg width="1200" height="630" viewBox="0 0 1200 630" fill="none" xmlns="http://www.w3.org/2000/svg" role="img" aria-labelledby="title desc">
  <title id="title">Outfit ideas from your own clothes</title>
  <desc id="desc">A digital closet interface with outfit cards, clothing thumbnails, and styling lines on a soft neutral gradient.</desc>
  <defs>
    <linearGradient id="bg" x1="0" y1="0" x2="1200" y2="630" gradientUnits="userSpaceOnUse">
      <stop stop-color="#F7F3EE"/>
      <stop offset="1" stop-color="#E9EEF6"/>
    </linearGradient>
    <linearGradient id="card" x1="0" y1="0" x2="1" y2="1">
      <stop stop-color="#FFFFFF" stop-opacity="0.98"/>
      <stop offset="1" stop-color="#F8FAFC" stop-opacity="0.95"/>
    </linearGradient>
    <filter id="shadow" x="180" y="60" width="840" height="510" filterUnits="userSpaceOnUse" color-interpolation-filters="sRGB">
      <feFlood flood-opacity="0" result="BackgroundImageFix"/>
      <feColorMatrix in="SourceAlpha" type="matrix" values="0 0 0 0 0 0 0 0 0 0 0 0 0 0 0 0 0 0 127 0" result="hardAlpha"/>
      <feOffset dy="16"/>
      <feGaussianBlur stdDeviation="18"/>
      <feComposite in2="hardAlpha" operator="out"/>
      <feColorMatrix type="matrix" values="0 0 0 0 0.184 0 0 0 0 0.196 0 0 0 0 0.247 0 0 0 0.18 0"/>
      <feBlend mode="normal" in2="BackgroundImageFix" result="effect1_dropShadow_0_1"/>
      <feBlend mode="normal" in="SourceGraphic" in2="effect1_dropShadow_0_1" result="shape"/>
    </filter>
    <linearGradient id="accent" x1="0" y1="0" x2="1" y2="1">
      <stop stop-color="#6D7CE8"/>
      <stop offset="1" stop-color="#59B7D9"/>
    </linearGradient>
  </defs>

  <rect width="1200" height="630" fill="url(#bg)"/>

  <circle cx="170" cy="120" r="120" fill="#FFFFFF" fill-opacity="0.35"/>
  <circle cx="1060" cy="520" r="170" fill="#FFFFFF" fill-opacity="0.28"/>

  <g filter="url(#shadow)">
    <rect x="220" y="100" width="760" height="430" rx="28" fill="url(#card)"/>
  </g>

  <rect x="260" y="142" width="300" height="22" rx="11" fill="#DCE3F3"/>
  <rect x="260" y="176" width="200" height="16" rx="8" fill="#E8EDF8"/>

  <g>
    <rect x="260" y="220" width="120" height="155" rx="16" fill="#F1F4FA"/>
    <rect x="400" y="220" width="120" height="155" rx="16" fill="#F1F4FA"/>
    <rect x="540" y="220" width="120" height="155" rx="16" fill="#F1F4FA"/>

    <rect x="282" y="252" width="76" height="14" rx="7" fill="#CCD8F1"/>
    <rect x="282" y="274" width="58" height="10" rx="5" fill="#D8E1F5"/>

    <rect x="422" y="252" width="76" height="14" rx="7" fill="#CCD8F1"/>
    <rect x="422" y="274" width="58" height="10" rx="5" fill="#D8E1F5"/>

    <rect x="562" y="252" width="76" height="14" rx="7" fill="#CCD8F1"/>
    <rect x="562" y="274" width="58" height="10" rx="5" fill="#D8E1F5"/>
  </g>

  <g>
    <rect x="700" y="220" width="240" height="210" rx="18" fill="#EEF3FB"/>
    <rect x="724" y="248" width="110" height="12" rx="6" fill="#C8D4EE"/>
    <rect x="724" y="270" width="170" height="10" rx="5" fill="#D5DFF2"/>
    <rect x="724" y="294" width="190" height="10" rx="5" fill="#D5DFF2"/>

    <rect x="724" y="330" width="192" height="42" rx="12" fill="url(#accent)"/>
    <rect x="740" y="344" width="118" height="14" rx="7" fill="#FFFFFF" fill-opacity="0.92"/>
  </g>

  <path d="M380 407 C470 470, 610 470, 700 407" stroke="#8C9DDC" stroke-width="5" stroke-linecap="round" stroke-dasharray="2 14"/>
  <circle cx="380" cy="407" r="10" fill="#6D7CE8"/>
  <circle cx="700" cy="407" r="10" fill="#59B7D9"/>

  <text x="260" y="488" fill="#243049" font-size="36" font-family="Inter, system-ui, -apple-system, Segoe UI, Roboto, Arial, sans-serif" font-weight="700">Outfit ideas from your own clothes</text>
  <text x="260" y="520" fill="#4B5A78" font-size="22" font-family="Inter, system-ui, -apple-system, Segoe UI, Roboto, Arial, sans-serif">Plan faster. Wear more of what you already own.</text>
</svg>
