<svg xmlns="http://www.w3.org/2000/svg" viewBox="0 0 1200 630" width="1200" height="630">
  <rect width="1200" height="630" fill="#0a0a0a"/>
  <defs>
    <linearGradient id="accentGrad" x1="0%" y1="0%" x2="100%" y2="100%">
      <stop offset="0%" style="stop-color:#7c3aed;stop-opacity:0.3"/>
      <stop offset="50%" style="stop-color:#ec4899;stop-opacity:0.2"/>
      <stop offset="100%" style="stop-color:#0a0a0a;stop-opacity:0"/>
    </linearGradient>
    <linearGradient id="cardGrad" x1="0%" y1="0%" x2="0%" y2="100%">
      <stop offset="0%" style="stop-color:#1a1a2e;stop-opacity:1"/>
      <stop offset="100%" style="stop-color:#0f0f1a;stop-opacity:1"/>
    </linearGradient>
    <linearGradient id="tagGrad" x1="0%" y1="0%" x2="100%" y2="0%">
      <stop offset="0%" style="stop-color:#7c3aed;stop-opacity:1"/>
      <stop offset="100%" style="stop-color:#ec4899;stop-opacity:1"/>
    </linearGradient>
  </defs>
  <ellipse cx="900" cy="180" rx="480" ry="320" fill="url(#accentGrad)"/>
  <rect x="680" y="120" width="150" height="200" rx="12" fill="url(#cardGrad)" stroke="#2a2a4a" stroke-width="1"/>
  <rect x="700" y="140" width="110" height="75" rx="6" fill="#2d2b55"/>
  <rect x="700" y="228" width="110" height="75" rx="6" fill="#1e3a5f"/>
  <rect x="700" y="188" width="45" height="30" rx="5" fill="#3d1a78"/>
  <rect x="764" y="188" width="45" height="30" rx="5" fill="#3d1a78"/>
  <rect x="700" y="308" width="110" height="4" rx="2" fill="#7c3aed" opacity="0.6"/>
  <rect x="850" y="90" width="150" height="200" rx="12" fill="url(#cardGrad)" stroke="#3a1a5e" stroke-width="1.5"/>
  <rect x="870" y="110" width="110" height="75" rx="6" fill="#4a1942"/>
  <rect x="870" y="198" width="110" height="75" rx="6" fill="#162837"/>
  <rect x="870" y="158" width="45" height="30" rx="5" fill="#7c3aed" opacity="0.7"/>
  <rect x="934" y="158" width="45" height="30" rx="5" fill="#7c3aed" opacity="0.7"/>
  <rect x="870" y="278" width="110" height="4" rx="2" fill="#ec4899" opacity="0.6"/>
  <rect x="1020" y="130" width="150" height="200" rx="12" fill="url(#cardGrad)" stroke="#2a2a4a" stroke-width="1"/>
  <rect x="1040" y="150" width="110" height="75" rx="6" fill="#1a3a2a"/>
  <rect x="1040" y="238" width="110" height="75" rx="6" fill="#2d2b55"/>
  <rect x="1040" y="198" width="45" height="30" rx="5" fill="#1e4a3e"/>
  <rect x="1104" y="198" width="45" height="30" rx="5" fill="#1e4a3e"/>
  <rect x="1040" y="318" width="110" height="4" rx="2" fill="#7c3aed" opacity="0.6"/>
  <circle cx="760" cy="350" r="4" fill="#ec4899" opacity="0.8"/>
  <circle cx="830" cy="370" r="3" fill="#7c3aed" opacity="0.8"/>
  <circle cx="900" cy="340" r="5" fill="#ec4899" opacity="0.5"/>
  <circle cx="970" cy="360" r="3" fill="#7c3aed" opacity="0.6"/>
  <rect x="80" y="120" width="180" height="32" rx="16" fill="url(#tagGrad)"/>
  <text x="170" y="141" font-family="Inter, Arial, sans-serif" font-size="13" font-weight="600" fill="white" text-anchor="middle" letter-spacing="1">AI PERSONAL STYLIST</text>
  <text x="80" y="230" font-family="Inter, Arial, sans-serif" font-size="52" font-weight="800" fill="white">Style</text>
  <text x="80" y="295" font-family="Inter, Arial, sans-serif" font-size="52" font-weight="800" fill="white">Glow-Up</text>
  <rect x="80" y="315" width="320" height="4" rx="2" fill="url(#tagGrad)"/>
  <text x="80" y="365" font-family="Inter, Arial, sans-serif" font-size="22" fill="#a0a0c0" font-weight="400">Zero new purchases.</text>
  <text x="80" y="398" font-family="Inter, Arial, sans-serif" font-size="22" fill="#a0a0c0" font-weight="400">All from your real wardrobe.</text>
  <rect x="80" y="440" width="130" height="80" rx="10" fill="#1a1a2e" stroke="#2a2a4a" stroke-width="1"/>
  <text x="145" y="475" font-family="Inter, Arial, sans-serif" font-size="28" font-weight="800" fill="white" text-anchor="middle">80%</text>
  <text x="145" y="500" font-family="Inter, Arial, sans-serif" font-size="12" fill="#a0a0c0" text-anchor="middle">closet unused</text>
  <rect x="228" y="440" width="130" height="80" rx="10" fill="#1a1a2e" stroke="#2a2a4a" stroke-width="1"/>
  <text x="293" y="475" font-family="Inter, Arial, sans-serif" font-size="28" font-weight="800" fill="#ec4899" text-anchor="middle">Free</text>
  <text x="293" y="500" font-family="Inter, Arial, sans-serif" font-size="12" fill="#a0a0c0" text-anchor="middle">to start</text>
  <text x="80" y="590" font-family="Inter, Arial, sans-serif" font-size="18" font-weight="700" fill="#7c3aed" letter-spacing="2">dripmatiq.app</text>
</svg>
