<svg xmlns="http://www.w3.org/2000/svg" width="1200" height="630" viewBox="0 0 1200 630" role="img" aria-label="STYLING RULE: The Third Piece Rule">
  <defs>
    <linearGradient id="bg" x1="0%" y1="0%" x2="100%" y2="100%">
      <stop offset="0%" stop-color="#1a2230"/>
      <stop offset="100%" stop-color="#0e1420"/>
    </linearGradient>
    <linearGradient id="vg" x1="0%" y1="100%" x2="0%" y2="0%">
      <stop offset="0%" stop-color="#000" stop-opacity="0.35"/>
      <stop offset="100%" stop-color="#000" stop-opacity="0"/>
    </linearGradient>
  </defs>
  <rect width="1200" height="630" fill="url(#bg)"/>
  <rect x="840" y="100" width="14" height="430" fill="#a8c8e8" opacity="0.06"/><rect x="870" y="100" width="14" height="430" fill="#a8c8e8" opacity="0.10"/><rect x="900" y="100" width="14" height="430" fill="#a8c8e8" opacity="0.14"/><rect x="930" y="100" width="14" height="430" fill="#a8c8e8" opacity="0.18"/><rect x="960" y="100" width="14" height="430" fill="#a8c8e8" opacity="0.22"/><rect x="990" y="100" width="14" height="430" fill="#a8c8e8" opacity="0.26"/><rect x="1020" y="100" width="14" height="430" fill="#a8c8e8" opacity="0.30"/><rect x="1050" y="100" width="14" height="430" fill="#a8c8e8" opacity="0.34"/>
  <rect width="1200" height="630" fill="url(#vg)"/>
  <g transform="translate(80,80)">
    <circle cx="0" cy="0" r="6" fill="#c9a84c"/>
    <text x="18" y="6" fill="#c9a84c" font-family="Georgia,serif" font-size="20" font-weight="600" letter-spacing="3">DRIPMATIQ</text>
  </g>
  <text x="80" y="290" fill="#a8c8e8" font-family="system-ui,sans-serif" font-size="16" font-weight="700" letter-spacing="4">STYLING RULE</text>
  <rect x="80" y="305" width="48" height="3" fill="#a8c8e8"/>
  <text x="80" y="370" fill="#ffffff" font-family="Georgia,serif" font-size="60" font-weight="700">The Third</text>
  <text x="80" y="440" fill="#ffffff" font-family="Georgia,serif" font-size="60" font-weight="700">Piece Rule</text>
  <text x="80" y="540" fill="#888" font-family="system-ui,sans-serif" font-size="14" letter-spacing="2">DRIPMATIQ.APP / BLOG</text>
</svg>
