<svg xmlns="http://www.w3.org/2000/svg" viewBox="0 0 1200 630" width="1200" height="630">
  <defs>
    <linearGradient id="bg" x1="0%" y1="0%" x2="100%" y2="100%">
      <stop offset="0%" style="stop-color:#0a0a0a"/>
      <stop offset="50%" style="stop-color:#1a1a2e"/>
      <stop offset="100%" style="stop-color:#16213e"/>
    </linearGradient>
    <linearGradient id="ai" x1="0%" y1="0%" x2="100%" y2="0%">
      <stop offset="0%" style="stop-color:#6366f1"/>
      <stop offset="100%" style="stop-color:#a78bfa"/>
    </linearGradient>
    <linearGradient id="reddit" x1="0%" y1="0%" x2="100%" y2="0%">
      <stop offset="0%" style="stop-color:#ff4500"/>
      <stop offset="100%" style="stop-color:#fb923c"/>
    </linearGradient>
  </defs>
  <rect width="1200" height="630" fill="url(#bg)"/>

  <!-- Left: AI scoring rings -->
  <g transform="translate(260,315)">
    <circle r="120" fill="none" stroke="url(#ai)" stroke-width="2" opacity="0.35"/>
    <circle r="90"  fill="none" stroke="url(#ai)" stroke-width="2" opacity="0.55"/>
    <circle r="60"  fill="none" stroke="url(#ai)" stroke-width="2" opacity="0.75"/>
    <circle r="32"  fill="url(#ai)" opacity="0.85"/>
    <text x="0" y="8" text-anchor="middle" font-family="Inter, system-ui, sans-serif" font-size="28" font-weight="700" fill="#0a0a0a">AI</text>
  </g>

  <!-- Center divider -->
  <line x1="600" y1="140" x2="600" y2="490" stroke="#ffffff" stroke-width="1" opacity="0.18" stroke-dasharray="4 8"/>
  <text x="600" y="320" text-anchor="middle" font-family="Inter, system-ui, sans-serif" font-size="42" font-weight="800" fill="#ffffff" opacity="0.85">VS</text>

  <!-- Right: Reddit upvotes -->
  <g transform="translate(940,315)" opacity="0.9">
    <polygon points="0,-90 -50,-20 -20,-20 -20,40 20,40 20,-20 50,-20" fill="url(#reddit)"/>
    <polygon points="0,-50 -28,-10 -10,-10 -10,30 10,30 10,-10 28,-10" fill="url(#reddit)" opacity="0.6" transform="translate(-80,80)"/>
    <polygon points="0,-50 -28,-10 -10,-10 -10,30 10,30 10,-10 28,-10" fill="url(#reddit)" opacity="0.6" transform="translate(80,80)"/>
  </g>

  <!-- Title block -->
  <text x="600" y="555" text-anchor="middle" font-family="Inter, system-ui, sans-serif" font-size="36" font-weight="800" fill="#ffffff">AI Outfit Scoring vs. the Reddit Crowd</text>
  <text x="600" y="595" text-anchor="middle" font-family="Inter, system-ui, sans-serif" font-size="18" font-weight="500" fill="#a78bfa" opacity="0.9">dripmatiq · style intelligence</text>
</svg>
