<svg xmlns="http://www.w3.org/2000/svg" width="1200" height="630" viewBox="0 0 1200 630">
  <rect width="1200" height="630" fill="#0a0a0a"/>
  <defs>
    <linearGradient id="bg" x1="0%" y1="0%" x2="100%" y2="100%">
      <stop offset="0%" style="stop-color:#0f0f1a;stop-opacity:1" />
      <stop offset="100%" style="stop-color:#0a0a0a;stop-opacity:1" />
    </linearGradient>
    <linearGradient id="accentGrad" x1="0%" y1="0%" x2="100%" y2="0%">
      <stop offset="0%" style="stop-color:#7c3aed;stop-opacity:1" />
      <stop offset="100%" style="stop-color:#4f46e5;stop-opacity:1" />
    </linearGradient>
    <linearGradient id="cardGrad" x1="0%" y1="0%" x2="0%" y2="100%">
      <stop offset="0%" style="stop-color:#1a1a2e;stop-opacity:1" />
      <stop offset="100%" style="stop-color:#16213e;stop-opacity:1" />
    </linearGradient>
  </defs>
  <rect width="1200" height="630" fill="url(#bg)"/>
  <rect x="80" y="100" width="320" height="430" rx="8" fill="#111827" stroke="#1f2937" stroke-width="2"/>
  <line x1="100" y1="160" x2="380" y2="160" stroke="#374151" stroke-width="3"/>
  <rect x="120" y="165" width="40" height="180" rx="4" fill="#6d28d9" opacity="0.8"/>
  <rect x="170" y="165" width="40" height="150" rx="4" fill="#1e40af" opacity="0.8"/>
  <rect x="220" y="165" width="40" height="170" rx="4" fill="#374151" opacity="0.9"/>
  <rect x="270" y="165" width="40" height="190" rx="4" fill="#7c3aed" opacity="0.7"/>
  <rect x="320" y="165" width="40" height="155" rx="4" fill="#1f2937" opacity="0.9" stroke="#374151" stroke-width="1"/>
  <polyline points="140,155 140,165 160,165 160,155" fill="none" stroke="#9ca3af" stroke-width="2"/>
  <polyline points="190,155 190,165 210,165 210,155" fill="none" stroke="#9ca3af" stroke-width="2"/>
  <polyline points="240,155 240,165 260,165 260,155" fill="none" stroke="#9ca3af" stroke-width="2"/>
  <polyline points="290,155 290,165 310,165 310,155" fill="none" stroke="#9ca3af" stroke-width="2"/>
  <polyline points="340,155 340,165 360,165 360,155" fill="none" stroke="#9ca3af" stroke-width="2"/>
  <ellipse cx="130" cy="490" rx="25" ry="12" fill="#374151"/>
  <ellipse cx="185" cy="490" rx="25" ry="12" fill="#1e40af" opacity="0.8"/>
  <ellipse cx="240" cy="490" rx="25" ry="12" fill="#374151"/>
  <ellipse cx="295" cy="490" rx="25" ry="12" fill="#6d28d9" opacity="0.8"/>
  <ellipse cx="350" cy="490" rx="25" ry="12" fill="#111827" stroke="#374151" stroke-width="1"/>
  <circle cx="490" cy="315" r="30" fill="#7c3aed" opacity="0.15"/>
  <text x="490" y="325" font-family="system-ui, sans-serif" font-size="28" fill="#7c3aed" text-anchor="middle">&#10022;</text>
  <rect x="540" y="100" width="260" height="430" rx="28" fill="#111827" stroke="#1f2937" stroke-width="2"/>
  <rect x="640" y="108" width="60" height="12" rx="6" fill="#1f2937"/>
  <rect x="554" y="130" width="232" height="370" rx="4" fill="#0f0f1a"/>
  <rect x="554" y="130" width="232" height="40" rx="0" fill="#1a1a2e"/>
  <text x="670" y="156" font-family="system-ui, sans-serif" font-size="13" fill="#e5e7eb" text-anchor="middle" font-weight="bold">Today's Outfits</text>
  <rect x="566" y="180" width="210" height="110" rx="8" fill="url(#cardGrad)"/>
  <rect x="574" y="190" width="60" height="80" rx="4" fill="#6d28d9" opacity="0.7"/>
  <rect x="642" y="190" width="60" height="80" rx="4" fill="#1e40af" opacity="0.7"/>
  <text x="574" y="285" font-family="system-ui, sans-serif" font-size="10" fill="#9ca3af">Navy blazer + cream trousers</text>
  <rect x="730" y="193" width="36" height="18" rx="9" fill="#7c3aed" opacity="0.8"/>
  <text x="748" y="206" font-family="system-ui, sans-serif" font-size="9" fill="#fff" text-anchor="middle">Work</text>
  <rect x="566" y="300" width="210" height="110" rx="8" fill="url(#cardGrad)"/>
  <rect x="574" y="310" width="60" height="80" rx="4" fill="#374151" opacity="0.9"/>
  <rect x="642" y="310" width="60" height="80" rx="4" fill="#6d28d9" opacity="0.6"/>
  <text x="574" y="405" font-family="system-ui, sans-serif" font-size="10" fill="#9ca3af">Midi skirt + chunky knit</text>
  <rect x="730" y="313" width="36" height="18" rx="9" fill="#059669" opacity="0.8"/>
  <text x="748" y="326" font-family="system-ui, sans-serif" font-size="9" fill="#fff" text-anchor="middle">Casual</text>
  <rect x="554" y="470" width="232" height="30" rx="0" fill="#1a1a2e"/>
  <text x="620" y="490" font-family="system-ui, sans-serif" font-size="10" fill="#7c3aed" text-anchor="middle">Home</text>
  <text x="670" y="490" font-family="system-ui, sans-serif" font-size="10" fill="#9ca3af" text-anchor="middle">Outfits</text>
  <text x="720" y="490" font-family="system-ui, sans-serif" font-size="10" fill="#9ca3af" text-anchor="middle">Profile</text>
  <text x="860" y="220" font-family="system-ui, sans-serif" font-size="36" fill="#f9fafb" font-weight="bold" text-anchor="middle">Your Closet.</text>
  <text x="860" y="265" font-family="system-ui, sans-serif" font-size="36" fill="#f9fafb" font-weight="bold" text-anchor="middle">Your Outfits.</text>
  <rect x="790" y="282" width="140" height="3" rx="2" fill="url(#accentGrad)"/>
  <text x="860" y="320" font-family="system-ui, sans-serif" font-size="16" fill="#9ca3af" text-anchor="middle">AI outfit generator from</text>
  <text x="860" y="342" font-family="system-ui, sans-serif" font-size="16" fill="#9ca3af" text-anchor="middle">your real wardrobe</text>
  <rect x="785" y="370" width="150" height="40" rx="20" fill="url(#accentGrad)"/>
  <text x="860" y="396" font-family="system-ui, sans-serif" font-size="15" fill="#fff" text-anchor="middle" font-weight="bold">dripmatiq.app</text>
  <text x="860" y="440" font-family="system-ui, sans-serif" font-size="12" fill="#4b5563" text-anchor="middle">Free on iOS &amp; Android</text>
  <rect x="0" y="0" width="1200" height="4" fill="url(#accentGrad)"/>
</svg>
