<svg xmlns="http://www.w3.org/2000/svg" width="1200" height="630" viewBox="0 0 1200 630" role="img" aria-label="VIRTUAL TRY-ON: The Best Virtual Try-On Apps in 2026">
  <defs>
    <linearGradient id="bg" x1="0%" y1="0%" x2="100%" y2="100%">
      <stop offset="0%" stop-color="#0e1a2b"/>
      <stop offset="100%" stop-color="#070f1a"/>
    </linearGradient>
    <linearGradient id="vg" x1="0%" y1="100%" x2="0%" y2="0%">
      <stop offset="0%" stop-color="#000" stop-opacity="0.35"/>
      <stop offset="100%" stop-color="#000" stop-opacity="0"/>
    </linearGradient>
  </defs>
  <rect width="1200" height="630" fill="url(#bg)"/>
  <!-- Phone silhouette with outfit preview -->
  <rect x="820" y="100" width="180" height="320" rx="20" fill="#111827" stroke="#1e3a5f" stroke-width="2"/>
  <rect x="835" y="120" width="150" height="280" rx="8" fill="#0d1f35"/>
  <!-- Person silhouette on phone screen -->
  <ellipse cx="910" cy="170" rx="22" ry="24" fill="#1e3a5f" opacity="0.8"/>
  <rect x="888" y="192" width="44" height="90" rx="6" fill="#1a3050" opacity="0.9"/>
  <rect x="878" y="200" width="20" height="60" rx="4" fill="#162840" opacity="0.7"/>
  <rect x="912" y="200" width="20" height="60" rx="4" fill="#162840" opacity="0.7"/>
  <rect x="888" y="282" width="18" height="55" rx="4" fill="#162840" opacity="0.7"/>
  <rect x="910" y="282" width="18" height="55" rx="4" fill="#162840" opacity="0.7"/>
  <!-- Outfit highlight on phone -->
  <rect x="888" y="192" width="44" height="90" rx="6" fill="none" stroke="#7ec8e3" stroke-width="1.5" opacity="0.6"/>
  <!-- Sparkle/AI indicator -->
  <circle cx="940" cy="155" r="8" fill="#c9a84c" opacity="0.8"/>
  <text x="940" y="159" text-anchor="middle" fill="#000" font-family="system-ui,sans-serif" font-size="10" font-weight="700">✦</text>
  <!-- Comparison dots -->
  <circle cx="835" cy="415" r="5" fill="#7ec8e3" opacity="0.8"/>
  <circle cx="855" cy="415" r="5" fill="#c9a84c" opacity="0.6"/>
  <circle cx="875" cy="415" r="5" fill="#7ec8e3" opacity="0.4"/>
  <rect width="1200" height="630" fill="url(#vg)"/>
  <g transform="translate(80,80)">
    <circle cx="0" cy="0" r="6" fill="#c9a84c"/>
    <text x="18" y="6" fill="#c9a84c" font-family="Georgia,serif" font-size="20" font-weight="600" letter-spacing="3">DRIPMATIQ</text>
  </g>
  <text x="80" y="290" fill="#7ec8e3" font-family="system-ui,sans-serif" font-size="16" font-weight="700" letter-spacing="4">VIRTUAL TRY-ON</text>
  <rect x="80" y="305" width="48" height="3" fill="#7ec8e3"/>
  <text x="80" y="370" fill="#ffffff" font-family="Georgia,serif" font-size="56" font-weight="700">The Best Apps</text>
  <text x="80" y="440" fill="#ffffff" font-family="Georgia,serif" font-size="56" font-weight="700">in 2026.</text>
  <text x="80" y="540" fill="#888" font-family="system-ui,sans-serif" font-size="14" letter-spacing="2">DRIPMATIQ.APP / BLOG</text>
</svg>
