<svg xmlns="http://www.w3.org/2000/svg" width="1200" height="630" viewBox="0 0 1200 630" role="img" aria-label="COLOR TRENDS: A Color Trends. Your Closet Knows.">
  <defs>
    <linearGradient id="bg" x1="0%" y1="0%" x2="100%" y2="100%">
      <stop offset="0%" stop-color="#142a1a"/>
      <stop offset="100%" stop-color="#08180e"/>
    </linearGradient>
    <linearGradient id="vg" x1="0%" y1="100%" x2="0%" y2="0%">
      <stop offset="0%" stop-color="#000" stop-opacity="0.35"/>
      <stop offset="100%" stop-color="#000" stop-opacity="0"/>
    </linearGradient>
  </defs>
  <rect width="1200" height="630" fill="url(#bg)"/>
  <circle cx="830" cy="130" r="4" fill="#88d8a0" opacity="0.15"/><circle cx="830" cy="185" r="6" fill="#88d8a0" opacity="0.21"/><circle cx="830" cy="240" r="8" fill="#88d8a0" opacity="0.27"/><circle cx="830" cy="295" r="10" fill="#88d8a0" opacity="0.33"/><circle cx="830" cy="350" r="4" fill="#88d8a0" opacity="0.39"/><circle cx="830" cy="405" r="6" fill="#88d8a0" opacity="0.15"/><circle cx="830" cy="460" r="8" fill="#88d8a0" opacity="0.21"/><circle cx="885" cy="130" r="6" fill="#88d8a0" opacity="0.21"/><circle cx="885" cy="185" r="8" fill="#88d8a0" opacity="0.27"/><circle cx="885" cy="240" r="10" fill="#88d8a0" opacity="0.33"/><circle cx="885" cy="295" r="4" fill="#88d8a0" opacity="0.39"/><circle cx="885" cy="350" r="6" fill="#88d8a0" opacity="0.15"/><circle cx="885" cy="405" r="8" fill="#88d8a0" opacity="0.21"/><circle cx="885" cy="460" r="10" fill="#88d8a0" opacity="0.27"/><circle cx="940" cy="130" r="8" fill="#88d8a0" opacity="0.27"/><circle cx="940" cy="185" r="10" fill="#88d8a0" opacity="0.33"/><circle cx="940" cy="240" r="4" fill="#88d8a0" opacity="0.39"/><circle cx="940" cy="295" r="6" fill="#88d8a0" opacity="0.15"/><circle cx="940" cy="350" r="8" fill="#88d8a0" opacity="0.21"/><circle cx="940" cy="405" r="10" fill="#88d8a0" opacity="0.27"/><circle cx="940" cy="460" r="4" fill="#88d8a0" opacity="0.33"/><circle cx="995" cy="130" r="10" fill="#88d8a0" opacity="0.33"/><circle cx="995" cy="185" r="4" fill="#88d8a0" opacity="0.39"/><circle cx="995" cy="240" r="6" fill="#88d8a0" opacity="0.15"/><circle cx="995" cy="295" r="8" fill="#88d8a0" opacity="0.21"/><circle cx="995" cy="350" r="10" fill="#88d8a0" opacity="0.27"/><circle cx="995" cy="405" r="4" fill="#88d8a0" opacity="0.33"/><circle cx="995" cy="460" r="6" fill="#88d8a0" opacity="0.39"/><circle cx="1050" cy="130" r="4" fill="#88d8a0" opacity="0.39"/><circle cx="1050" cy="185" r="6" fill="#88d8a0" opacity="0.15"/><circle cx="1050" cy="240" r="8" fill="#88d8a0" opacity="0.21"/><circle cx="1050" cy="295" r="10" fill="#88d8a0" opacity="0.27"/><circle cx="1050" cy="350" r="4" fill="#88d8a0" opacity="0.33"/><circle cx="1050" cy="405" r="6" fill="#88d8a0" opacity="0.39"/><circle cx="1050" cy="460" r="8" fill="#88d8a0" opacity="0.15"/><circle cx="1105" cy="130" r="6" fill="#88d8a0" opacity="0.15"/><circle cx="1105" cy="185" r="8" fill="#88d8a0" opacity="0.21"/><circle cx="1105" cy="240" r="10" fill="#88d8a0" opacity="0.27"/><circle cx="1105" cy="295" r="4" fill="#88d8a0" opacity="0.33"/><circle cx="1105" cy="350" r="6" fill="#88d8a0" opacity="0.39"/><circle cx="1105" cy="405" r="8" fill="#88d8a0" opacity="0.15"/><circle cx="1105" cy="460" r="10" fill="#88d8a0" opacity="0.21"/>
  <rect width="1200" height="630" fill="url(#vg)"/>
  <g transform="translate(80,80)">
    <circle cx="0" cy="0" r="6" fill="#c9a84c"/>
    <text x="18" y="6" fill="#c9a84c" font-family="Georgia,serif" font-size="20" font-weight="600" letter-spacing="3">DRIPMATIQ</text>
  </g>
  <text x="80" y="290" fill="#88d8a0" font-family="system-ui,sans-serif" font-size="16" font-weight="700" letter-spacing="4">COLOR TRENDS</text>
  <rect x="80" y="305" width="48" height="3" fill="#88d8a0"/>
  <text x="80" y="370" fill="#ffffff" font-family="Georgia,serif" font-size="60" font-weight="700">A Color Trends.</text>
  <text x="80" y="440" fill="#ffffff" font-family="Georgia,serif" font-size="60" font-weight="700">Your Closet Knows.</text>
  <text x="80" y="540" fill="#888" font-family="system-ui,sans-serif" font-size="14" letter-spacing="2">DRIPMATIQ.APP / BLOG</text>
</svg>
